<?xml version="1.0" standalone="no"?>
<!DOCTYPE svg PUBLIC "-//W3C//DTD SVG 20010904//EN"
 "http://www.w3.org/TR/2001/REC-SVG-20010904/DTD/svg10.dtd">
<svg version="1.0" xmlns="http://www.w3.org/2000/svg"
 width="172.000000pt" height="160.000000pt" viewBox="0 0 172.000000 160.000000"
 preserveAspectRatio="xMidYMid meet">

<g transform="translate(0.000000,160.000000) scale(0.100000,-0.100000)"
fill="#000000" stroke="none">
<path d="M628 1480 c-61 -11 -144 -56 -177 -97 -36 -45 -120 -197 -111 -201 4
-2 62 15 128 37 252 85 522 117 632 77 114 -42 170 -117 170 -226 0 -99 -47
-180 -139 -241 l-24 -15 32 -47 c46 -67 61 -119 61 -206 0 -154 -76 -241 -265
-306 -68 -23 -197 -24 -250 -1 -125 53 -185 197 -185 445 0 65 5 165 10 221 6
56 9 105 6 107 -5 6 -134 -46 -208 -83 -26 -13 -53 -34 -59 -46 -7 -13 -12
-75 -12 -157 -1 -154 19 -248 75 -353 77 -145 232 -238 396 -238 52 0 178 22
232 41 54 19 139 67 209 118 35 25 80 56 99 67 20 12 38 28 41 35 8 27 73 99
84 92 6 -3 7 -1 3 5 -5 9 21 32 36 32 12 0 1 -63 -12 -73 -16 -13 -15 -61 1
-52 5 4 9 2 9 -4 0 -6 7 -8 15 -5 8 4 15 14 15 25 0 10 12 25 28 34 51 31 95
101 100 159 5 68 -9 99 -44 90 l-25 -6 16 38 c22 50 22 155 0 214 -59 165
-215 325 -415 424 -183 91 -326 120 -472 96z m928 -836 c2 -41 -30 -109 -60
-129 -32 -21 -44 -14 -38 25 2 17 0 30 -6 30 -16 0 -4 49 20 83 20 28 22 29
36 11 13 -18 14 -18 7 3 -6 20 -4 22 17 14 16 -6 23 -17 24 -37z"/>
<path d="M805 1103 l-90 -14 -2 -42 c-1 -23 -4 -137 -8 -253 -9 -243 -4 -292
31 -334 23 -27 32 -30 83 -30 71 0 154 38 176 81 43 82 -3 163 -128 224 -55
27 -63 34 -71 68 -14 54 13 101 68 122 23 8 68 24 100 36 100 37 146 107 94
143 -28 20 -128 20 -253 -1z"/>
<path d="M1661 703 c-6 -21 -17 -69 -26 -107 -9 -38 -22 -81 -30 -96 -18 -34
-90 -100 -113 -101 -9 -1 -26 -2 -36 -3 -26 -1 -32 -23 -9 -30 27 -9 80 9 116
40 l32 27 3 -39 c6 -66 42 -90 42 -28 0 52 28 151 56 205 20 36 25 57 22 105
-3 52 -6 59 -25 62 -18 3 -24 -4 -32 -35z"/>
</g>
</svg>
